<svg width="260" height="260" viewBox="0 0 260 260" fill="none" xmlns="http://www.w3.org/2000/svg">
  <!-- Fondo -->
  <circle cx="130" cy="130" r="118" fill="#020617" stroke="#111827" stroke-width="6"/>

  <!-- Aro exterior -->
  <circle cx="130" cy="130" r="108" stroke="#8B5CF6" stroke-width="4"/>

  <!-- Aro interior -->
  <circle cx="130" cy="130" r="78" stroke="#4C1D95" stroke-width="3"/>

  <!-- Rombo central -->
  <path
    d="M130 60 L154 140 L130 200 L106 140 Z"
    fill="#020617"
    stroke="#A855F7"
    stroke-width="6"
    stroke-linejoin="round"
  />

  <!-- Núcleo con gradiente -->
  <path
    d="M130 75 L146 138 L130 185 L114 138 Z"
    fill="url(#gradCore)"
  />

  <!-- ✨ ESTRELLAS MÁS PEQUEÑAS Y MÁS LEJOS DEL ROMBO -->
  <!-- Todas están aprox. a radio ~90 desde el centro (entre aro interior 78 y aro exterior 108) -->
  <!-- Usamos transform para posicionarlas, pero SOLO animamos opacity -->

  <!-- Arriba -->
  <g transform="translate(130,40)" opacity="0.8">
    <polygon points="0,-5 1.5,-1.5 5,0 1.5,1.5 0,5 -1.5,1.5 -5,0 -1.5,-1.5"
      fill="#FDF4FF"/>
    <animate attributeName="opacity" values="0.3;1;0.3" dur="2.2s" repeatCount="indefinite" begin="0s"/>
  </g>
   <!-- Star 1 – arriba -->
  <g opacity="0.8">
    <polygon points="90,88 91.5,91 95,92.5 91.5,94 90,97 88.5,94 85,92.5 88.5,91"
      fill="#FDF4FF"/>
    <animate attributeName="opacity" values="0.3;1;0.3" dur="2.2s" repeatCount="indefinite" begin="0s"/>
  </g>
  <!-- Star 4 – medio-derecha -->
  <g opacity="0.8">
    <polygon points="182,130 183.5,132.5 187,134 183.5,135.5 182,138 180.5,135.5 177,134 180.5,132.5"
      fill="#EDE9FE"/>
    <animate attributeName="opacity" values="0.3;1;0.3" dur="2.3s" repeatCount="indefinite" begin="1.2s"/>
  </g>
  <!-- Star 7 – abajo-izquierda -->
  <g opacity="0.8">
    <polygon points="80,162 81.3,164.5 84.5,166 81.3,167.5 80,170 78.7,167.5 75.5,166 78.7,164.5"
      fill="#EDE9FF"/>
    <animate attributeName="opacity" values="0.3;1;0.3" dur="2.9s" repeatCount="indefinite" begin="2.4s"/>
  </g>


  <!-- Arriba-izquierda -->
  <g transform="translate(63,63)" opacity="0.8">
    <polygon points="0,-4.5 1.3,-1.3 4.5,0 1.3,1.3 0,4.5 -1.3,1.3 -4.5,0 -1.3,-1.3"
      fill="#F5F3FF"/>
    <animate attributeName="opacity" values="0.2;0.9;0.2" dur="2.4s" repeatCount="indefinite" begin="0.4s"/>
  </g>

  <!-- Arriba-derecha -->
  <g transform="translate(197,63)" opacity="0.8">
    <polygon points="0,-4.5 1.3,-1.3 4.5,0 1.3,1.3 0,4.5 -1.3,1.3 -4.5,0 -1.3,-1.3"
      fill="#F3E8FF"/>
    <animate attributeName="opacity" values="0.25;1;0.25" dur="2.6s" repeatCount="indefinite" begin="0.8s"/>
  </g>

  <!-- Derecha -->
  <g transform="translate(220,130)" opacity="0.8">
    <polygon points="0,-5 1.5,-1.5 5,0 1.5,1.5 0,5 -1.5,1.5 -5,0 -1.5,-1.5"
      fill="#EDE9FE"/>
    <animate attributeName="opacity" values="0.3;1;0.3" dur="2.3s" repeatCount="indefinite" begin="1.2s"/>
  </g>

  <!-- Izquierda -->
  <g transform="translate(40,130)" opacity="0.8">
    <polygon points="0,-5 1.5,-1.5 5,0 1.5,1.5 0,5 -1.5,1.5 -5,0 -1.5,-1.5"
      fill="#EEF2FF"/>
    <animate attributeName="opacity" values="0.25;1;0.25" dur="2.5s" repeatCount="indefinite" begin="1.6s"/>
  </g>

  <!-- Abajo-derecha -->
  <g transform="translate(197,197)" opacity="0.8">
    <polygon points="0,-5 1.5,-1.5 5,0 1.5,1.5 0,5 -1.5,1.5 -5,0 -1.5,-1.5"
      fill="#F8F5FF"/>
    <animate attributeName="opacity" values="0.2;0.9;0.2" dur="2.7s" repeatCount="indefinite" begin="2.0s"/>
  </g>

  <!-- Abajo-izquierda -->
  <g transform="translate(63,197)" opacity="0.8">
    <polygon points="0,-4.5 1.3,-1.3 4.5,0 1.3,1.3 0,4.5 -1.3,1.3 -4.5,0 -1.3,-1.3"
      fill="#EDE9FF"/>
    <animate attributeName="opacity" values="0.3;1;0.3" dur="2.9s" repeatCount="indefinite" begin="2.4s"/>
  </g>

  <!-- Abajo -->
  <g transform="translate(130,220)" opacity="0.8">
    <polygon points="0,-5 1.5,-1.5 5,0 1.5,1.5 0,5 -1.5,1.5 -5,0 -1.5,-1.5"
      fill="#FDF2FF"/>
    <animate attributeName="opacity" values="0.2;0.9;0.2" dur="3s" repeatCount="indefinite" begin="2.8s"/>
  </g>

  <defs>
    <linearGradient id="gradCore" x1="120" y1="75" x2="150" y2="190" gradientUnits="userSpaceOnUse">
      <stop offset="0" stop-color="#C4B5FD"/>
      <stop offset="1" stop-color="#4C1D95"/>
    </linearGradient>
  </defs>
</svg>
